<svg width="4143" height="2200" xmlns="http://www.w3.org/2000/svg" xmlns:xlink="http://www.w3.org/1999/xlink" xml:space="preserve" overflow="hidden"><g transform="translate(-169 -77)"><g><path d="M170 191.125C170 129.752 219.752 80.0001 281.125 80.0001L4197.88 80.0001C4259.25 80.0001 4309 129.752 4309 191.125L4309 2165.88C4309 2227.25 4259.25 2277 4197.88 2277L281.125 2277C219.752 2277 170 2227.25 170 2165.88Z" fill="#08A1DE" fill-rule="evenodd" fill-opacity="1"/><path d="M1420.5 358.293C1420.5 313.12 1457.12 276.5 1502.29 276.5L2196.71 276.5C2241.88 276.5 2278.5 313.12 2278.5 358.293L2278.5 2052.71C2278.5 2097.88 2241.88 2134.5 2196.71 2134.5L1502.29 2134.5C1457.12 2134.5 1420.5 2097.88 1420.5 2052.71Z" stroke="#D9D9D9" stroke-width="20.625" stroke-linecap="butt" stroke-linejoin="round" stroke-miterlimit="10" stroke-opacity="1" fill="#08A1DE" fill-rule="evenodd" fill-opacity="0.65098"/><path d="M1360 505C1360 469.101 1389.1 440 1425 440 1460.9 440 1490 469.101 1490 505 1490 540.898 1460.9 570 1425 570 1389.1 570 1360 540.898 1360 505Z" fill="#A6A6A6" fill-rule="evenodd" fill-opacity="1"/><text fill="#011F3D" fill-opacity="1" font-family="Courier New,Courier New_MSFontService,sans-serif" font-style="normal" font-variant="normal" font-weight="400" font-stretch="normal" font-size="64" text-anchor="start" direction="ltr" writing-mode="lr-tb" unicode-bidi="normal" text-decoration="none" transform="matrix(1 0 0 1 1559.94 508)">/configuration</text><text fill="#011F3D" fill-opacity="1" font-family="Courier New,Courier New_MSFontService,sans-serif" font-style="normal" font-variant="normal" font-weight="400" font-stretch="normal" font-size="64" text-anchor="start" direction="ltr" writing-mode="lr-tb" unicode-bidi="normal" text-decoration="none" transform="matrix(1 0 0 1 1713.48 601)">/certificate</text><text fill="#011F3D" fill-opacity="1" font-family="Courier New,Courier New_MSFontService,sans-serif" font-style="normal" font-variant="normal" font-weight="400" font-stretch="normal" font-size="64" text-anchor="start" direction="ltr" writing-mode="lr-tb" unicode-bidi="normal" text-decoration="none" transform="matrix(1 0 0 1 1713.48 693)">/edge</text><text fill="#011F3D" fill-opacity="1" font-family="Courier New,Courier New_MSFontService,sans-serif" font-style="normal" font-variant="normal" font-weight="400" font-stretch="normal" font-size="64" text-anchor="start" direction="ltr" writing-mode="lr-tb" unicode-bidi="normal" text-decoration="none" transform="matrix(1 0 0 1 1713.48 785)">/analytics</text><path d="M1360 1012C1360 976.102 1389.1 947 1425 947 1460.9 947 1490 976.102 1490 1012 1490 1047.9 1460.9 1077 1425 1077 1389.1 1077 1360 1047.9 1360 1012Z" fill="#A6A6A6" fill-rule="evenodd" fill-opacity="1"/><text fill="#011F3D" fill-opacity="1" font-family="Courier New,Courier New_MSFontService,sans-serif" font-style="normal" font-variant="normal" font-weight="400" font-stretch="normal" font-size="64" text-anchor="start" direction="ltr" writing-mode="lr-tb" unicode-bidi="normal" text-decoration="none" transform="matrix(1 0 0 1 1559.94 1015)">/analytics</text><text fill="#011F3D" fill-opacity="1" font-family="Courier New,Courier New_MSFontService,sans-serif" font-style="normal" font-variant="normal" font-weight="400" font-stretch="normal" font-size="64" text-anchor="start" direction="ltr" writing-mode="lr-tb" unicode-bidi="normal" text-decoration="none" transform="matrix(1 0 0 1 1713.48 1108)">/measurement</text><text fill="#011F3D" fill-opacity="1" font-family="Courier New,Courier New_MSFontService,sans-serif" font-style="normal" font-variant="normal" font-weight="400" font-stretch="normal" font-size="64" text-anchor="start" direction="ltr" writing-mode="lr-tb" unicode-bidi="normal" text-decoration="none" transform="matrix(1 0 0 1 1713.48 1200)">/series</text><path d="M1360 1436C1360 1400.1 1389.1 1371 1425 1371 1460.9 1371 1490 1400.1 1490 1436 1490 1471.9 1460.9 1501 1425 1501 1389.1 1501 1360 1471.9 1360 1436Z" fill="#A6A6A6" fill-rule="evenodd" fill-opacity="1"/><text fill="#011F3D" fill-opacity="1" font-family="Courier New,Courier New_MSFontService,sans-serif" font-style="normal" font-variant="normal" font-weight="400" font-stretch="normal" font-size="64" text-anchor="start" direction="ltr" writing-mode="lr-tb" unicode-bidi="normal" text-decoration="none" transform="matrix(1 0 0 1 1559.94 1439)">/services</text><path d="M1360 1776C1360 1740.1 1389.1 1711 1425 1711 1460.9 1711 1490 1740.1 1490 1776 1490 1811.9 1460.9 1841 1425 1841 1389.1 1841 1360 1811.9 1360 1776Z" fill="#D9D9D9" fill-rule="evenodd" fill-opacity="1"/><text fill="#011F3D" fill-opacity="1" font-family="Courier New,Courier New_MSFontService,sans-serif" font-style="normal" font-variant="normal" font-weight="400" font-stretch="normal" font-size="64" text-anchor="start" direction="ltr" writing-mode="lr-tb" unicode-bidi="normal" text-decoration="none" transform="matrix(1 0 0 1 1559.94 1779)">/measurements</text><path d="M2512.5 358.198C2512.5 313.077 2549.08 276.5 2594.2 276.5L3287.8 276.5C3332.92 276.5 3369.5 313.077 3369.5 358.198L3369.5 2052.8C3369.5 2097.92 3332.92 2134.5 3287.8 2134.5L2594.2 2134.5C2549.08 2134.5 2512.5 2097.92 2512.5 2052.8Z" stroke="#D9D9D9" stroke-width="20.625" stroke-linecap="butt" stroke-linejoin="round" stroke-miterlimit="10" stroke-opacity="1" fill="#08A1DE" fill-rule="evenodd" fill-opacity="0.529412"/><text fill="#011F3D" fill-opacity="1" font-family="Courier New,Courier New_MSFontService,sans-serif" font-style="normal" font-variant="normal" font-weight="400" font-stretch="normal" font-size="92" text-anchor="start" direction="ltr" writing-mode="lr-tb" unicode-bidi="normal" text-decoration="none" transform="matrix(-1.83697e-16 -1 1 -1.83697e-16 3271.54 2082)">thin edge processes</text><path d="M303.5 358.293C303.5 313.12 340.12 276.5 385.294 276.5L1079.71 276.5C1124.88 276.5 1161.5 313.12 1161.5 358.293L1161.5 2052.71C1161.5 2097.88 1124.88 2134.5 1079.71 2134.5L385.294 2134.5C340.12 2134.5 303.5 2097.88 303.5 2052.71Z" stroke="#D9D9D9" stroke-width="20.625" stroke-linecap="butt" stroke-linejoin="round" stroke-miterlimit="10" stroke-opacity="1" fill="#08A1DE" fill-rule="evenodd" fill-opacity="0.65098"/><text fill="#011F3D" fill-opacity="1" font-family="Courier New,Courier New_MSFontService,sans-serif" font-style="normal" font-variant="normal" font-weight="400" font-stretch="normal" font-size="92" text-anchor="start" direction="ltr" writing-mode="lr-tb" unicode-bidi="normal" text-decoration="none" transform="matrix(-1.83697e-16 -1 1 -1.83697e-16 1055.29 2035)">web </text><text fill="#011F3D" fill-opacity="1" font-family="Courier New,Courier New_MSFontService,sans-serif" font-style="normal" font-variant="normal" font-weight="400" font-stretch="normal" font-size="92" text-anchor="start" direction="ltr" writing-mode="lr-tb" unicode-bidi="normal" text-decoration="none" transform="matrix(-1.83697e-16 -1 1 -1.83697e-16 1055.29 1815)">ui</text><text fill="#011F3D" fill-opacity="1" font-family="Courier New,Courier New_MSFontService,sans-serif" font-style="normal" font-variant="normal" font-weight="400" font-stretch="normal" font-size="64" text-anchor="start" direction="ltr" writing-mode="lr-tb" unicode-bidi="normal" text-decoration="none" transform="matrix(1 0 0 1 629.256 757)">analytics</text><text fill="#011F3D" fill-opacity="1" font-family="Courier New,Courier New_MSFontService,sans-serif" font-style="normal" font-variant="normal" font-weight="400" font-stretch="normal" font-size="64" text-anchor="start" direction="ltr" writing-mode="lr-tb" unicode-bidi="normal" text-decoration="none" transform="matrix(1 0 0 1 629.486 1160)">edge</text><text fill="#011F3D" fill-opacity="1" font-family="Courier New,Courier New_MSFontService,sans-serif" font-style="normal" font-variant="normal" font-weight="400" font-stretch="normal" font-size="64" text-anchor="start" direction="ltr" writing-mode="lr-tb" unicode-bidi="normal" text-decoration="none" transform="matrix(1 0 0 1 744.642 1253)">setup</text><text fill="#011F3D" fill-opacity="1" font-family="Courier New,Courier New_MSFontService,sans-serif" font-style="normal" font-variant="normal" font-weight="400" font-stretch="normal" font-size="64" text-anchor="start" direction="ltr" writing-mode="lr-tb" unicode-bidi="normal" text-decoration="none" transform="matrix(1 0 0 1 744.642 1345)">control</text><text fill="#011F3D" fill-opacity="1" font-family="Courier New,Courier New_MSFontService,sans-serif" font-style="normal" font-variant="normal" font-weight="400" font-stretch="normal" font-size="64" text-anchor="start" direction="ltr" writing-mode="lr-tb" unicode-bidi="normal" text-decoration="none" transform="matrix(1 0 0 1 629.256 1610)">cloud</text><text fill="#011F3D" fill-opacity="1" font-family="Courier New,Courier New_MSFontService,sans-serif" font-style="normal" font-variant="normal" font-weight="400" font-stretch="normal" font-size="92" text-anchor="start" direction="ltr" writing-mode="lr-tb" unicode-bidi="normal" text-decoration="none" transform="matrix(-1.83697e-16 -1 1 -1.83697e-16 2205.12 2061)">node</text><path d="M3436 1869C3436 1833.1 3465.1 1804 3501 1804 3536.9 1804 3566 1833.1 3566 1869 3566 1904.9 3536.9 1934 3501 1934 3465.1 1934 3436 1904.9 3436 1869Z" fill="#A6A6A6" fill-rule="evenodd" fill-opacity="1"/><text fill="#011F3D" fill-opacity="1" font-family="Courier New,Courier New_MSFontService,sans-serif" font-style="normal" font-variant="normal" font-weight="400" font-stretch="normal" font-size="64" text-anchor="start" direction="ltr" writing-mode="lr-tb" unicode-bidi="normal" text-decoration="none" transform="matrix(1 0 0 1 3617.69 1883)">rest endpoint</text><path d="M3436 2018C3436 1982.1 3465.1 1953 3501 1953 3536.9 1953 3566 1982.1 3566 2018 3566 2053.9 3536.9 2083 3501 2083 3465.1 2083 3436 2053.9 3436 2018Z" fill="#D9D9D9" fill-rule="evenodd" fill-opacity="1"/><text fill="#011F3D" fill-opacity="1" font-family="Courier New,Courier New_MSFontService,sans-serif" font-style="normal" font-variant="normal" font-weight="400" font-stretch="normal" font-size="64" text-anchor="start" direction="ltr" writing-mode="lr-tb" unicode-bidi="normal" text-decoration="none" transform="matrix(1 0 0 1 3623.89 2032)">socket endpoint</text><rect x="3436" y="1652" width="130" height="130" fill="#005371" fill-opacity="1"/><text fill="#011F3D" fill-opacity="1" font-family="Courier New,Courier New_MSFontService,sans-serif" font-style="normal" font-variant="normal" font-weight="400" font-stretch="normal" font-size="64" text-anchor="start" direction="ltr" writing-mode="lr-tb" unicode-bidi="normal" text-decoration="none" transform="matrix(1 0 0 1 3617.69 1732)">process</text><text fill="#011F3D" fill-opacity="1" font-family="Courier New,Courier New_MSFontService,sans-serif" font-style="normal" font-variant="normal" font-weight="400" font-stretch="normal" font-size="64" text-anchor="start" direction="ltr" writing-mode="lr-tb" unicode-bidi="normal" text-decoration="none" transform="matrix(1 0 0 1 3617.68 1576)">web </text><text fill="#011F3D" fill-opacity="1" font-family="Courier New,Courier New_MSFontService,sans-serif" font-style="normal" font-variant="normal" font-weight="400" font-stretch="normal" font-size="64" text-anchor="start" direction="ltr" writing-mode="lr-tb" unicode-bidi="normal" text-decoration="none" transform="matrix(1 0 0 1 3771.22 1576)">ui</text><path d="M3436 1517.67C3436 1505.7 3445.7 1496 3457.67 1496L3544.33 1496C3556.3 1496 3566 1505.7 3566 1517.67L3566 1604.33C3566 1616.3 3556.3 1626 3544.33 1626L3457.67 1626C3445.7 1626 3436 1616.3 3436 1604.33Z" fill="#005371" fill-rule="evenodd" fill-opacity="1"/><rect x="2604.5" y="681.5" width="208" height="207" stroke="#D9D9D9" stroke-width="4.58333" stroke-linecap="butt" stroke-linejoin="round" stroke-miterlimit="10" stroke-opacity="1" fill="#005371" fill-opacity="1"/><text fill="#011F3D" fill-opacity="1" font-family="Courier New,Courier New_MSFontService,sans-serif" font-style="normal" font-variant="normal" font-weight="400" font-stretch="normal" font-size="64" text-anchor="start" direction="ltr" writing-mode="lr-tb" unicode-bidi="normal" text-decoration="none" transform="matrix(1 0 0 1 2884.76 804)">mosquitto</text><rect x="2604.5" y="1074.5" width="208" height="208" stroke="#D9D9D9" stroke-width="4.58333" stroke-linecap="butt" stroke-linejoin="round" stroke-miterlimit="10" stroke-opacity="1" fill="#005371" fill-opacity="1"/><text fill="#011F3D" fill-opacity="1" font-family="Courier New,Courier New_MSFontService,sans-serif" font-style="normal" font-variant="normal" font-weight="400" font-stretch="normal" font-size="64" text-anchor="start" direction="ltr" writing-mode="lr-tb" unicode-bidi="normal" text-decoration="none" transform="matrix(1 0 0 1 2884.76 1198)">tedge</text><path d="M381.5 689.167C381.5 670.021 397.021 654.5 416.167 654.5L554.833 654.5C573.979 654.5 589.5 670.021 589.5 689.167L589.5 827.833C589.5 846.979 573.979 862.5 554.833 862.5L416.167 862.5C397.021 862.5 381.5 846.979 381.5 827.833Z" stroke="#D9D9D9" stroke-width="4.58333" stroke-linecap="butt" stroke-linejoin="round" stroke-miterlimit="10" stroke-opacity="1" fill="#005371" fill-rule="evenodd" fill-opacity="1"/><path d="M380.5 1092.17C380.5 1073.02 396.021 1057.5 415.167 1057.5L553.833 1057.5C572.979 1057.5 588.5 1073.02 588.5 1092.17L588.5 1230.83C588.5 1249.98 572.979 1265.5 553.833 1265.5L415.167 1265.5C396.021 1265.5 380.5 1249.98 380.5 1230.83Z" stroke="#D9D9D9" stroke-width="4.58333" stroke-linecap="butt" stroke-linejoin="round" stroke-miterlimit="10" stroke-opacity="1" fill="#005371" fill-rule="evenodd" fill-opacity="1"/><path d="M381.5 1525.17C381.5 1506.02 397.021 1490.5 416.167 1490.5L554.833 1490.5C573.979 1490.5 589.5 1506.02 589.5 1525.17L589.5 1663.83C589.5 1682.98 573.979 1698.5 554.833 1698.5L416.167 1698.5C397.021 1698.5 381.5 1682.98 381.5 1663.83Z" stroke="#D9D9D9" stroke-width="4.58333" stroke-linecap="butt" stroke-linejoin="round" stroke-miterlimit="10" stroke-opacity="1" fill="#005371" fill-rule="evenodd" fill-opacity="1"/><text fill="#011F3D" fill-opacity="1" font-family="Courier New,Courier New_MSFontService,sans-serif" font-style="normal" font-variant="normal" font-weight="400" font-stretch="normal" font-size="92" text-anchor="start" direction="ltr" writing-mode="lr-tb" unicode-bidi="normal" text-decoration="none" transform="matrix(1 0 0 1 305.482 204)">tedge</text><text fill="#011F3D" fill-opacity="1" font-family="Courier New,Courier New_MSFontService,sans-serif" font-style="normal" font-variant="normal" font-weight="400" font-stretch="normal" font-size="92" text-anchor="start" direction="ltr" writing-mode="lr-tb" unicode-bidi="normal" text-decoration="none" transform="matrix(1 0 0 1 580.482 204)">-</text><text fill="#011F3D" fill-opacity="1" font-family="Courier New,Courier New_MSFontService,sans-serif" font-style="normal" font-variant="normal" font-weight="400" font-stretch="normal" font-size="92" text-anchor="start" direction="ltr" writing-mode="lr-tb" unicode-bidi="normal" text-decoration="none" transform="matrix(1 0 0 1 635.482 204)">mgmt-server</text><path d="M1157.5 495.052 1353.88 495.052 1353.88 509.948 1157.5 509.948ZM1157.5 524.844C1145.16 524.844 1135.16 514.84 1135.16 502.5 1135.16 490.16 1145.16 480.156 1157.5 480.156 1169.84 480.156 1179.84 490.16 1179.84 502.5 1179.84 514.84 1169.84 524.844 1157.5 524.844Z" fill="#005371" fill-rule="nonzero" fill-opacity="1"/><path d="M1157.5 1005.05 1353.88 1005.05 1353.88 1019.95 1157.5 1019.95ZM1157.5 1034.84C1145.16 1034.84 1135.16 1024.84 1135.16 1012.5 1135.16 1000.16 1145.16 990.156 1157.5 990.156 1169.84 990.156 1179.84 1000.16 1179.84 1012.5 1179.84 1024.84 1169.84 1034.84 1157.5 1034.84Z" fill="#005371" fill-rule="nonzero" fill-opacity="1"/><path d="M1157.5 1431.05 1353.88 1431.05 1353.88 1445.95 1157.5 1445.95ZM1157.5 1460.84C1145.16 1460.84 1135.16 1450.84 1135.16 1438.5 1135.16 1426.16 1145.16 1416.16 1157.5 1416.16 1169.84 1416.16 1179.84 1426.16 1179.84 1438.5 1179.84 1450.84 1169.84 1460.84 1157.5 1460.84Z" fill="#005371" fill-rule="nonzero" fill-opacity="1"/><path d="M1157.5 1760.05 1353.88 1760.05 1353.88 1774.95 1157.5 1774.95ZM1157.5 1789.84C1145.16 1789.84 1135.16 1779.84 1135.16 1767.5 1135.16 1755.16 1145.16 1745.16 1157.5 1745.16 1169.84 1745.16 1179.84 1755.16 1179.84 1767.5 1179.84 1779.84 1169.84 1789.84 1157.5 1789.84Z" fill="#005371" fill-rule="nonzero" fill-opacity="1"/><path d="M2284.5 1188.05 2518.36 1188.05 2518.36 1202.95 2284.5 1202.95ZM2284.5 1217.84C2272.16 1217.84 2262.16 1207.84 2262.16 1195.5 2262.16 1183.16 2272.16 1173.16 2284.5 1173.16 2296.84 1173.16 2306.84 1183.16 2306.84 1195.5 2306.84 1207.84 2296.84 1217.84 2284.5 1217.84Z" fill="#005371" fill-rule="nonzero" fill-opacity="1"/></g></g></svg>