<svg width="3199" height="2163" xmlns="http://www.w3.org/2000/svg" xmlns:xlink="http://www.w3.org/1999/xlink" xml:space="preserve" overflow="hidden"><g transform="translate(-536 -114)"><g><path d="M537 174.216C537 141.512 563.512 115 596.215 115L3673.78 115C3706.49 115 3733 141.512 3733 174.216L3733 2217.78C3733 2250.49 3706.49 2277 3673.78 2277L596.215 2277C563.512 2277 537 2250.49 537 2217.78Z" fill="#F2F2F2" fill-rule="evenodd" fill-opacity="1"/><path d="M2603 323.71C2603 290.181 2630.18 263 2663.71 263L3399.29 263C3432.82 263 3460 290.181 3460 323.71L3460 2060.29C3460 2093.82 3432.82 2121 3399.29 2121L2663.71 2121C2630.18 2121 2603 2093.82 2603 2060.29Z" fill="#08A1DE" fill-rule="evenodd" fill-opacity="1"/><path d="M823 321.481C823 289.183 849.183 263 881.481 263L2180.52 263C2212.82 263 2239 289.183 2239 321.481L2239 2062.52C2239 2094.82 2212.82 2121 2180.52 2121L881.481 2121C849.183 2121 823 2094.82 823 2062.52Z" fill="#08A1DE" fill-rule="evenodd" fill-opacity="1"/><text fill="#011F3D" fill-opacity="1" font-family="Courier New,Courier New_MSFontService,sans-serif" font-style="normal" font-variant="normal" font-weight="400" font-stretch="normal" font-size="92" text-anchor="start" direction="ltr" writing-mode="lr-tb" unicode-bidi="normal" text-decoration="none" transform="matrix(1 0 0 1 883.706 396)">tedge</text><text fill="#011F3D" fill-opacity="1" font-family="Courier New,Courier New_MSFontService,sans-serif" font-style="normal" font-variant="normal" font-weight="400" font-stretch="normal" font-size="92" text-anchor="start" direction="ltr" writing-mode="lr-tb" unicode-bidi="normal" text-decoration="none" transform="matrix(1 0 0 1 1158.71 396)">-</text><text fill="#011F3D" fill-opacity="1" font-family="Courier New,Courier New_MSFontService,sans-serif" font-style="normal" font-variant="normal" font-weight="400" font-stretch="normal" font-size="92" text-anchor="start" direction="ltr" writing-mode="lr-tb" unicode-bidi="normal" text-decoration="none" transform="matrix(1 0 0 1 1213.71 396)">mgmt-server</text><rect x="1109.5" y="645.5" width="246" height="247" stroke="#D9D9D9" stroke-width="4.58333" stroke-linecap="butt" stroke-linejoin="round" stroke-miterlimit="10" stroke-opacity="1" fill="#005371" fill-opacity="1"/><text fill="#011F3D" fill-opacity="1" font-family="Courier New,Courier New_MSFontService,sans-serif" font-style="normal" font-variant="normal" font-weight="400" font-stretch="normal" font-size="92" text-anchor="start" direction="ltr" writing-mode="lr-tb" unicode-bidi="normal" text-decoration="none" transform="matrix(1 0 0 1 2650.88 386)">mongodb</text><path d="M0-7.44792 246.938-7.44792C251.051-7.44792 254.386-4.11337 254.386 0L254.386 324.598 246.938 317.15 456.637 317.15 456.637 332.046 246.938 332.046C242.825 332.046 239.49 328.712 239.49 324.598L239.49 0 246.938 7.44792 0 7.44792ZM449.189 302.254 493.876 324.598 449.189 346.942Z" fill="#005371" fill-rule="nonzero" fill-opacity="1" transform="matrix(1 0 0 -1 1362.5 1692.1)"/><path d="M2.15462e-06-7.44792 1210.26-7.44757 1210.26 7.44827-2.15462e-06 7.44792ZM1202.82-22.3434 1247.5 0.000360892 1202.82 22.3441Z" fill="#005371" fill-rule="nonzero" fill-opacity="1" transform="matrix(-1 0 0 1 2603 1764.5)"/><rect x="1856.5" y="645.5" width="167" height="981" stroke="#D9D9D9" stroke-width="4.58333" stroke-linecap="butt" stroke-linejoin="round" stroke-miterlimit="10" stroke-opacity="1" fill="#005371" fill-opacity="1"/><text fill="#011F3D" fill-opacity="1" font-family="Courier New,Courier New_MSFontService,sans-serif" font-style="normal" font-variant="normal" font-weight="400" font-stretch="normal" font-size="64" text-anchor="start" direction="ltr" writing-mode="lr-tb" unicode-bidi="normal" text-decoration="none" transform="matrix(-1.83697e-16 -1 1 -1.83697e-16 2130.53 1627)">mosquitto</text><path d="M1392.74 761.052 1818.68 761.053 1818.68 775.948 1392.74 775.948ZM1400.19 790.844 1355.5 768.5 1400.19 746.156ZM1811.23 746.157 1855.92 768.5 1811.23 790.844Z" fill="#005371" fill-rule="nonzero" fill-opacity="1"/><text fill="#011F3D" fill-opacity="1" font-family="Courier New,Courier New_MSFontService,sans-serif" font-style="normal" font-variant="normal" font-weight="400" font-stretch="normal" font-size="64" text-anchor="start" direction="ltr" writing-mode="lr-tb" unicode-bidi="normal" text-decoration="none" transform="matrix(1 0 0 1 928.592 602)">tedge</text><text fill="#011F3D" fill-opacity="1" font-family="Courier New,Courier New_MSFontService,sans-serif" font-style="normal" font-variant="normal" font-weight="400" font-stretch="normal" font-size="64" text-anchor="start" direction="ltr" writing-mode="lr-tb" unicode-bidi="normal" text-decoration="none" transform="matrix(1 0 0 1 1120.52 602)">-</text><text fill="#011F3D" fill-opacity="1" font-family="Courier New,Courier New_MSFontService,sans-serif" font-style="normal" font-variant="normal" font-weight="400" font-stretch="normal" font-size="64" text-anchor="start" direction="ltr" writing-mode="lr-tb" unicode-bidi="normal" text-decoration="none" transform="matrix(1 0 0 1 1158.9 602)">mapper</text><text fill="#011F3D" fill-opacity="1" font-family="Courier New,Courier New_MSFontService,sans-serif" font-style="normal" font-variant="normal" font-weight="400" font-stretch="normal" font-size="64" text-anchor="start" direction="ltr" writing-mode="lr-tb" unicode-bidi="normal" text-decoration="none" transform="matrix(1 0 0 1 1389.22 602)">-</text><text fill="#011F3D" fill-opacity="1" font-family="Courier New,Courier New_MSFontService,sans-serif" font-style="normal" font-variant="normal" font-weight="400" font-stretch="normal" font-size="64" text-anchor="start" direction="ltr" writing-mode="lr-tb" unicode-bidi="normal" text-decoration="none" transform="matrix(1 0 0 1 1427.6 602)">c8y</text><rect x="1109.5" y="1640.5" width="246" height="247" stroke="#D9D9D9" stroke-width="4.58333" stroke-linecap="butt" stroke-linejoin="round" stroke-miterlimit="10" stroke-opacity="1" fill="#005371" fill-opacity="1"/><text fill="#011F3D" fill-opacity="1" font-family="Courier New,Courier New_MSFontService,sans-serif" font-style="normal" font-variant="normal" font-weight="400" font-stretch="normal" font-size="64" text-anchor="start" direction="ltr" writing-mode="lr-tb" unicode-bidi="normal" text-decoration="none" transform="matrix(1 0 0 1 1430.12 1497)">mqtt</text><text fill="#011F3D" fill-opacity="1" font-family="Courier New,Courier New_MSFontService,sans-serif" font-style="normal" font-variant="normal" font-weight="400" font-stretch="normal" font-size="64" text-anchor="start" direction="ltr" writing-mode="lr-tb" unicode-bidi="normal" text-decoration="none" transform="matrix(1 0 0 1 1979.1 1844)">socket</text><text fill="#011F3D" fill-opacity="1" font-family="Courier New,Courier New_MSFontService,sans-serif" font-style="normal" font-variant="normal" font-weight="400" font-stretch="normal" font-size="64" text-anchor="start" direction="ltr" writing-mode="lr-tb" unicode-bidi="normal" text-decoration="none" transform="matrix(1 0 0 1 1161.28 1615)">node</text><rect x="1109.5" y="1057.5" width="246" height="247" stroke="#D9D9D9" stroke-width="4.58333" stroke-linecap="butt" stroke-linejoin="round" stroke-miterlimit="10" stroke-opacity="1" fill="#005371" fill-opacity="1"/><path d="M1399.74 1173.05 1819.14 1173.05 1819.14 1187.95 1399.74 1187.95ZM1407.19 1202.84 1362.5 1180.5 1407.19 1158.16ZM1811.69 1158.16 1856.38 1180.5 1811.69 1202.84Z" fill="#005371" fill-rule="nonzero" fill-opacity="1"/><text fill="#011F3D" fill-opacity="1" font-family="Courier New,Courier New_MSFontService,sans-serif" font-style="normal" font-variant="normal" font-weight="400" font-stretch="normal" font-size="64" text-anchor="start" direction="ltr" writing-mode="lr-tb" unicode-bidi="normal" text-decoration="none" transform="matrix(1 0 0 1 874.656 1015)">tedge</text><text fill="#011F3D" fill-opacity="1" font-family="Courier New,Courier New_MSFontService,sans-serif" font-style="normal" font-variant="normal" font-weight="400" font-stretch="normal" font-size="64" text-anchor="start" direction="ltr" writing-mode="lr-tb" unicode-bidi="normal" text-decoration="none" transform="matrix(1 0 0 1 1066.58 1015)">-</text><text fill="#011F3D" fill-opacity="1" font-family="Courier New,Courier New_MSFontService,sans-serif" font-style="normal" font-variant="normal" font-weight="400" font-stretch="normal" font-size="64" text-anchor="start" direction="ltr" writing-mode="lr-tb" unicode-bidi="normal" text-decoration="none" transform="matrix(1 0 0 1 1104.97 1015)">mapper</text><text fill="#011F3D" fill-opacity="1" font-family="Courier New,Courier New_MSFontService,sans-serif" font-style="normal" font-variant="normal" font-weight="400" font-stretch="normal" font-size="64" text-anchor="start" direction="ltr" writing-mode="lr-tb" unicode-bidi="normal" text-decoration="none" transform="matrix(1 0 0 1 1335.28 1015)">-</text><text fill="#011F3D" fill-opacity="1" font-family="Courier New,Courier New_MSFontService,sans-serif" font-style="normal" font-variant="normal" font-weight="400" font-stretch="normal" font-size="64" text-anchor="start" direction="ltr" writing-mode="lr-tb" unicode-bidi="normal" text-decoration="none" transform="matrix(1 0 0 1 1373.67 1015)">collectd</text><path d="M2809.5 1041.13C2809.5 1066.88 2909.34 1087.75 3032.5 1087.75 3155.66 1087.75 3255.5 1066.88 3255.5 1041.13L3255.5 1320.87C3255.5 1346.63 3155.66 1367.5 3032.5 1367.5 2909.34 1367.5 2809.5 1346.63 2809.5 1320.87Z" fill="#005371" fill-rule="evenodd" fill-opacity="1"/><path d="M2809.5 1041.13C2809.5 1015.37 2909.34 994.5 3032.5 994.5 3155.66 994.5 3255.5 1015.37 3255.5 1041.13 3255.5 1066.88 3155.66 1087.75 3032.5 1087.75 2909.34 1087.75 2809.5 1066.88 2809.5 1041.13Z" fill="#6698AA" fill-rule="evenodd" fill-opacity="1"/><path d="M3255.5 1041.13C3255.5 1066.88 3155.66 1087.75 3032.5 1087.75 2909.34 1087.75 2809.5 1066.88 2809.5 1041.13 2809.5 1015.37 2909.34 994.5 3032.5 994.5 3155.66 994.5 3255.5 1015.37 3255.5 1041.13L3255.5 1320.87C3255.5 1346.63 3155.66 1367.5 3032.5 1367.5 2909.34 1367.5 2809.5 1346.63 2809.5 1320.87L2809.5 1041.13" stroke="#D9D9D9" stroke-width="4.58333" stroke-linecap="butt" stroke-linejoin="round" stroke-miterlimit="10" stroke-opacity="1" fill="none" fill-rule="evenodd"/><text fill="#011F3D" fill-opacity="1" font-family="Courier New,Courier New_MSFontService,sans-serif" font-style="normal" font-variant="normal" font-weight="400" font-stretch="normal" font-size="64" text-anchor="start" direction="ltr" writing-mode="lr-tb" unicode-bidi="normal" text-decoration="none" transform="matrix(1 0 0 1 2808.56 1497)">measurements</text><text fill="#011F3D" fill-opacity="1" font-family="Courier New,Courier New_MSFontService,sans-serif" font-style="normal" font-variant="normal" font-weight="400" font-stretch="normal" font-size="64" text-anchor="start" direction="ltr" writing-mode="lr-tb" unicode-bidi="normal" text-decoration="none" transform="matrix(1 0 0 1 2808.56 1590)">series</text></g></g></svg>